<svg width="188" height="42" viewBox="0 0 188 42" fill="none" xmlns="http://www.w3.org/2000/svg">
<path d="M11.274 3.30374C14.474 1.44695 17.9505 0.518555 21.7036 0.518555C25.4567 0.518555 28.9135 1.44695 32.074 3.30374C35.274 5.16053 37.8024 7.68893 39.6592 10.8889C41.516 14.0494 42.4444 17.5062 42.4444 21.2593C42.4444 25.0124 41.516 28.4889 39.6592 31.6889C37.8024 34.8494 35.274 37.3581 32.074 39.2149C28.9135 41.0716 25.4567 42 21.7036 42C17.9505 42 14.474 41.0716 11.274 39.2149C8.11351 37.3581 5.60487 34.8494 3.74808 31.6889C1.89129 28.4889 0.962891 25.0124 0.962891 21.2593C0.962891 17.5062 1.89129 14.0494 3.74808 10.8889C5.60487 7.68893 8.11351 5.16053 11.274 3.30374ZM12.1036 30.8593C14.7505 33.5062 17.9505 34.8297 21.7036 34.8297C25.4567 34.8297 28.6567 33.5062 31.3036 30.8593C33.9505 28.2124 35.274 25.0124 35.274 21.2593C35.274 17.5062 33.9505 14.3062 31.3036 11.6593C28.6567 9.01238 25.4567 7.68892 21.7036 7.68892C17.9505 7.68892 14.7505 9.01238 12.1036 11.6593C9.45672 14.3062 8.13326 17.5062 8.13326 21.2593C8.13326 25.0124 9.45672 28.2124 12.1036 30.8593Z" fill="#5885EA"/>
<path d="M84.7078 0.518555H93.4782L78.3671 22.3852V42H71.1967V22.3852L56.0856 0.518555H64.7967L74.7522 14.9186L84.7078 0.518555Z" fill="#5885EA"/>
<path d="M125.165 0.518555L140.276 42H132.632L121.313 11.0074L110.054 42H102.41L117.521 0.518555H125.165Z" fill="#5885EA"/>
<path d="M180.704 0.518555H187.874V27.363C187.874 31.4321 186.452 34.8889 183.608 37.7334C180.763 40.5778 177.326 42 173.297 42C169.267 42 165.81 40.5778 162.926 37.7334C160.082 34.8889 158.66 31.4321 158.66 27.363V0.518555H165.83V27.363C165.83 29.4173 166.561 31.1753 168.023 32.6371C169.484 34.0988 171.242 34.8297 173.297 34.8297C175.351 34.8297 177.089 34.0988 178.512 32.6371C179.973 31.1753 180.704 29.4173 180.704 27.363V0.518555Z" fill="#5885EA"/>
</svg>
