<svg width="424" height="117" viewBox="0 0 424 117" fill="none" xmlns="http://www.w3.org/2000/svg">
<path d="M28.8625 7.7962C37.8199 2.59873 47.5513 0 58.0568 0C68.5623 0 78.2385 2.59873 87.0852 7.7962C96.0425 12.9937 103.12 20.0711 108.317 29.0284C113.515 37.8752 116.114 47.5513 116.114 58.0568C116.114 68.5623 113.515 78.2938 108.317 87.2511C103.12 96.0978 96.0425 103.12 87.0852 108.317C78.2385 113.515 68.5623 116.114 58.0568 116.114C47.5513 116.114 37.8199 113.515 28.8625 108.317C20.0158 103.12 12.9937 96.0978 7.7962 87.2511C2.59873 78.2938 0 68.5623 0 58.0568C0 47.5513 2.59873 37.8752 7.7962 29.0284C12.9937 20.0711 20.0158 12.9937 28.8625 7.7962ZM31.1848 84.9288C38.594 92.338 47.5513 96.0425 58.0568 96.0425C68.5623 96.0425 77.5197 92.338 84.9288 84.9288C92.338 77.5197 96.0425 68.5623 96.0425 58.0568C96.0425 47.5513 92.338 38.594 84.9288 31.1848C77.5197 23.7756 68.5623 20.0711 58.0568 20.0711C47.5513 20.0711 38.594 23.7756 31.1848 31.1848C23.7756 38.594 20.0711 47.5513 20.0711 58.0568C20.0711 68.5623 23.7756 77.5197 31.1848 84.9288Z" fill="white"/>
<path d="M201.241 0H225.79L183.492 61.2085V116.114H163.421V61.2085L121.122 0H145.506L173.373 40.308L201.241 0Z" fill="white"/>
<path d="M281.312 0L323.611 116.114H302.213L270.53 29.3602L239.014 116.114H217.616L259.914 0H281.312Z" fill="white"/>
<path d="M403.6 0H423.671V75.1421C423.671 86.5323 419.69 96.2084 411.728 104.171C403.766 112.133 394.145 116.114 382.865 116.114C371.586 116.114 361.909 112.133 353.837 104.171C345.875 96.2084 341.894 86.5323 341.894 75.1421V0H361.965V75.1421C361.965 80.8925 364.011 85.8135 368.102 89.9051C372.194 93.9967 377.115 96.0425 382.865 96.0425C388.616 96.0425 393.481 93.9967 397.462 89.9051C401.554 85.8135 403.6 80.8925 403.6 75.1421V0Z" fill="white"/>
</svg>
